<!DOCTYPE svg PUBLIC "-//W3C//DTD SVG 20010904//EN" "http://www.w3.org/TR/2001/REC-SVG-20010904/DTD/svg10.dtd">
<svg version="1.0" xmlns="http://www.w3.org/2000/svg" width="88px" height="100px" viewBox="0 0 880 1000" preserveAspectRatio="xMidYMid meet">
<g id="layer101" fill="#1867c0" stroke="none">
 <path d="M239 953 c74 -185 189 -444 197 -444 5 1 10 107 12 246 l2 245 -115 0 -115 0 19 -47z"/>
 </g>
<g id="layer102" fill="#1697f6" stroke="none">
 <path d="M432 755 c2 -135 7 -246 11 -248 6 -1 163 354 210 476 6 16 -3 17 -108 17 l-115 0 2 -245z"/>
 </g>
<g id="layer103" fill="#7bc6ff" stroke="none">
 <path d="M636 862 c-2 -4 -50 -112 -105 -240 l-101 -233 0 -194 c0 -149 3 -195 13 -195 13 0 54 75 281 522 86 169 156 317 156 328 0 19 -6 20 -119 20 -66 0 -122 -4 -125 -8z"/>
 </g>
<g id="layer104" fill="#aeddff" stroke="none">
 <path d="M0 857 c0 -26 29 -87 227 -475 116 -227 201 -382 209 -382 12 0 14 35 13 198 l0 197 -103 235 -102 235 -122 3 c-100 2 -122 0 -122 -11z"/>
 </g>

</svg>